<svg width="130" height="30" viewBox="0 0 130 30" fill="none" xmlns="http://www.w3.org/2000/svg">
<path d="M0 16.9038L0.8159 16.3598H13.3264L14.1423 16.9038V21.2552L13.3264 22.0711H0.8159L0 21.2552V16.9038Z" fill="#6366F1"/>
<path d="M0 23.9749L0.8159 23.4309H13.3264L14.1423 23.9749V28.3263L13.3264 29.1422H0.8159L0 28.3263V23.9749Z" fill="#6366F1"/>
<path d="M0 9.83263L0.8159 9.2887H13.3264L14.1423 9.83263V14.1841L13.3264 15H0.8159L0 14.1841V9.83263Z" fill="#6366F1"/>
<path d="M19.5816 25.6958V23.2397H23.303V24.7055L24.6635 26.0127H31.7062L33.0668 24.7055V22.0909L31.7062 20.7044H23.1029L19.7417 17.3768V12.8608L23.183 9.41439H32.9067L36.388 12.8608V15.3169H32.6666V13.8512L31.3061 12.5439H24.8236L23.4631 13.8512V16.3073L24.8236 17.6938H33.3469L36.7882 21.1006V25.6958L33.3469 29.1422H23.0629L19.5816 25.6958Z" fill="white"/>
<path d="M40.971 25.3789V13.2174L44.8125 9.41439H55.2565L59.0979 13.2174V20.4271H44.6924V24.2301L46.4531 25.9731H53.6158L55.3765 24.2697V22.9228H59.0579V25.3789L55.2965 29.1422H44.7725L40.971 25.3789ZM55.3765 17.5353V14.3265L53.5758 12.5835H46.4931L44.6924 14.3265V17.5353H55.3765Z" fill="white"/>
<path d="M64.3143 0.857727H68.0357V29.1422H64.3143V0.857727Z" fill="white"/>
<path d="M73.4444 25.3789V13.2174L77.2858 9.41439H87.7298L91.5713 13.2174V20.4271H77.1658V24.2301L78.9265 25.9731H86.0892L87.8499 24.2697V22.9228H91.5313V25.3789L87.7698 29.1422H77.2458L73.4444 25.3789ZM87.8499 17.5353V14.3265L86.0492 12.5835H78.9665L77.1658 14.3265V17.5353H87.8499Z" fill="white"/>
<path d="M96.1874 25.3789V13.1777L99.9889 9.41439H110.033L113.874 13.2174V16.03H110.153V14.4058L108.352 12.6231H101.71L99.9088 14.4058V24.1509L101.71 25.9335H108.352L110.153 24.1509V22.5267H113.874V25.3393L110.033 29.1422H99.9889L96.1874 25.3789Z" fill="white"/>
<path d="M120.076 25.3789V12.5835H116.475V9.41439H120.156V2.99689H123.798V9.41439H130V12.6231H123.798V24.1905L125.598 25.9335H130V29.1422H123.918L120.076 25.3789Z" fill="white"/>
</svg>
